<svg xmlns="http://www.w3.org/2000/svg" width="762.342" height="691.848" viewBox="0 0 762.342 691.848">
  <g id="re-state_logo" data-name="re-state logo" transform="translate(-382.527 -100)">
    <g id="Polígono_4" data-name="Polígono 4" transform="translate(417.5 146)" fill="#1991eb">
      <path d="M 478.298095703125 622.848388671875 L 214.0983276367188 622.848388671875 C 180.6168823242188 622.848388671875 149.4209899902344 604.8341674804688 132.6846618652344 575.8357543945312 L 0.5627672076225281 346.9115295410156 C -16.16445541381836 317.9286499023438 -16.16445541381836 281.9197387695312 0.5626561045646667 252.9368591308594 L 132.6847686767578 24.01263809204102 C 149.4209899902344 -4.985805511474609 180.6168823242188 -23.00002861022949 214.0983276367188 -23.00002861022949 L 478.298095703125 -23.00002861022949 C 511.779541015625 -23.00002861022949 542.9754638671875 -4.985805511474609 559.7117919921875 24.01275062561035 L 691.833740234375 252.9368591308594 C 708.5609741210938 281.9197387695312 708.5609741210938 317.9286499023438 691.8338623046875 346.9115295410156 L 559.7117919921875 575.8357543945312 C 542.9754638671875 604.8341674804688 511.779541015625 622.848388671875 478.298095703125 622.848388671875 Z" stroke="none"/>
      <path d="M 214.0983581542969 -6.103515625e-05 C 188.7286071777344 -6.103515625e-05 165.28662109375 13.5367431640625 152.6050415039062 35.509521484375 L 20.4830322265625 264.4338073730469 C 7.80755615234375 286.3963317871094 7.80755615234375 313.4520568847656 20.4830322265625 335.4145812988281 L 152.6050415039062 564.3388671875 C 165.2864990234375 586.3116455078125 188.7284851074219 599.8483276367188 214.0983581542969 599.8483276367188 L 478.298095703125 599.8483276367188 C 503.6678161621094 599.8483276367188 527.1099243164062 586.3116455078125 539.7913818359375 564.3388671875 L 671.9133911132812 335.4145812988281 C 684.5888671875 313.4520568847656 684.5888671875 286.3963317871094 671.9133911132812 264.4338073730469 L 539.7913818359375 35.509521484375 C 527.1099243164062 13.5367431640625 503.6679382324219 -6.103515625e-05 478.298095703125 -6.103515625e-05 L 214.0983581542969 -6.103515625e-05 M 214.0983581542969 -46.00006103515625 L 478.298095703125 -46.00006103515625 C 519.9718017578125 -46.00006103515625 558.80078125 -23.57818603515625 579.632080078125 12.51568603515625 L 711.7542114257812 241.43994140625 C 732.57421875 277.5143127441406 732.57421875 322.3340759277344 711.7542114257812 358.4083251953125 L 579.6322021484375 587.3327026367188 C 558.8009033203125 623.4264526367188 519.971923828125 645.8483276367188 478.298095703125 645.8483276367188 L 214.0983581542969 645.8483276367188 C 172.4244995117188 645.8483276367188 133.5955200195312 623.4264526367188 112.7643432617188 587.3327026367188 L -19.3577880859375 358.408447265625 C -40.17779541015625 322.3340759277344 -40.17779541015625 277.5143127441406 -19.3577880859375 241.4400634765625 L 112.7642211914062 12.51568603515625 C 133.595947265625 -23.57818603515625 172.4247436523438 -46.00006103515625 214.0983581542969 -46.00006103515625 Z" stroke="none" fill="#1991eb"/>
    </g>
    <g id="Caminho_51" data-name="Caminho 51" transform="translate(417.024 146)" fill="#252b33">
      <path d="M 478.2980346679688 576.848388671875 L 214.0983581542969 576.8483276367188 C 197.0013580322266 576.848388671875 181.0715789794922 567.6497802734375 172.5254669189453 552.8419799804688 L 40.40335464477539 323.9176330566406 C 31.86179733276367 309.1178588867188 31.86179733276367 290.7304077148438 40.40346527099609 275.9307556152344 L 172.5254669189453 47.00641632080078 C 181.0716857910156 32.19874954223633 197.00146484375 22.99997138977051 214.0983581542969 22.99997138977051 L 478.2980346679688 22.99997138977051 C 495.3948974609375 22.99997138977051 511.3246765136719 32.19874954223633 519.8709106445312 47.00641632080078 L 651.9930419921875 275.9306335449219 C 660.5345458984375 290.7304077148438 660.5345458984375 309.1179809570312 651.9930419921875 323.9176330566406 L 519.8709106445312 552.8419799804688 C 511.3246765136719 567.649658203125 495.3948974609375 576.848388671875 478.2980346679688 576.848388671875 Z" stroke="none"/>
      <path d="M 214.098388671875 45.99993896484375 C 205.1936950683594 45.99993896484375 196.8969116210938 50.791015625 192.4458312988281 58.50341796875 L 60.3238525390625 287.4275207519531 C 55.87506103515625 295.1356506347656 55.87506103515625 304.7125854492188 60.3238525390625 312.4208679199219 L 192.4455871582031 541.3448486328125 C 196.8967895507812 549.0572509765625 205.1936950683594 553.8483276367188 214.098388671875 553.8483276367188 L 478.2979736328125 553.8483276367188 C 487.20263671875 553.8483276367188 495.4994506835938 549.057373046875 499.9505004882812 541.344970703125 L 632.0726318359375 312.4207153320312 C 636.5213012695312 304.7125854492188 636.5213012695312 295.1358032226562 632.072509765625 287.4276733398438 L 499.9506225585938 58.50341796875 C 495.4994506835938 50.791015625 487.20263671875 45.99993896484375 478.2979736328125 45.99993896484375 L 214.098388671875 45.99993896484375 M 214.098388671875 -6.103515625e-05 L 478.2979736328125 -6.103515625e-05 C 503.6678466796875 -6.103515625e-05 527.10986328125 13.5367431640625 539.7913208007812 35.509521484375 L 671.913330078125 264.4338073730469 C 684.5889282226562 286.3963317871094 684.5889282226562 313.4520568847656 671.913330078125 335.4145812988281 L 539.7913208007812 564.3388671875 C 527.10986328125 586.3116455078125 503.667724609375 599.8483276367188 478.2979736328125 599.8483276367188 L 214.098388671875 599.8483276367188 C 188.728515625 599.8483276367188 165.2864990234375 586.3116455078125 152.6049194335938 564.3388671875 L 20.4830322265625 335.4145812988281 C 7.80743408203125 313.4519348144531 7.80743408203125 286.3963317871094 20.4830322265625 264.4336547851562 L 152.6050415039062 35.509521484375 C 165.2864990234375 13.5367431640625 188.728515625 -6.103515625e-05 214.098388671875 -6.103515625e-05 Z" stroke="none" fill="#037aea"/>
    </g>
    <path id="Caminho_52" data-name="Caminho 52" d="M-126.593,0h13.632l-10.224-18.389a16.035,16.035,0,0,0,8.449-14.129c0-10.011-7.81-17.182-17.892-17.182h-19.88V0H-139.8V-16.046h4.544ZM-139.8-37.985h7.029a5.262,5.262,0,0,1,5.325,5.609c0,3.337-2.2,5.609-5.325,5.538H-139.8Zm44.02,26.057v-7.313h17.111V-30.956H-95.779v-6.887h18.886V-49.7h-31.6V0h31.95V-11.928ZM-70.5-15.762h27.69V-26.98H-70.5ZM-18.034,1.065C-6.816,1.065.852-4.615.852-14.484c0-10.437-8.165-13.277-15.833-15.549-6.745-1.988-8.52-3.195-8.52-5.4,0-1.775,1.491-3.266,4.615-3.266,3.621,0,6.177,1.846,7.739,5.538L-.5-39.4c-3.479-7.455-10.224-11.36-18.46-11.36-9.656,0-17.253,6.106-17.253,15.407s6.958,13.277,14.768,15.549c6.319,1.775,9.585,2.627,9.585,5.467,0,1.7-1.349,3.337-5.822,3.337-4.97,0-8.023-2.343-9.8-6.6L-38.34-11.289C-35.713-3.976-28.826,1.065-18.034,1.065ZM38.482-49.7H1.207v12.283H13.49V0H26.2V-37.417H38.482ZM69.864,0h13.7l-16.4-49.7H51.688L35.287,0H49.061l2.13-7.171H67.734ZM54.457-18.105,59.427-35l5.041,16.9Zm63.261-31.6H80.443v12.283H92.726V0h12.709V-37.417h12.283Zm17.324,37.772v-7.313h17.111V-30.956H135.042v-6.887h18.886V-49.7h-31.6V0h31.95V-11.928Z" transform="translate(764 621)" fill="#1991eb"/>
    <g id="Grupo_113" data-name="Grupo 113" transform="translate(-1 -6)">
      <path id="Icon_awesome-database" data-name="Icon awesome-database" d="M237.4,38.759V62.983c0,21.348-53.167,38.759-118.7,38.759S0,84.33,0,62.983V38.759C0,17.411,53.167,0,118.7,0S237.4,17.411,237.4,38.759Zm0,54.5v54.5c0,21.348-53.167,38.759-118.7,38.759S0,169.115,0,147.767v-54.5C25.5,110.825,72.177,119,118.7,119S211.894,110.825,237.4,93.263Zm0,84.784v54.5c0,21.348-53.167,38.759-118.7,38.759S0,253.9,0,232.552v-54.5c25.5,17.563,72.177,25.738,118.7,25.738S211.894,195.61,237.4,178.047Z" transform="translate(645.302 242.769)" fill="#037aea"/>
      <path id="Icon_awesome-database-2" data-name="Icon awesome-database" d="M237.4,38.759V62.983c0,21.348-53.167,38.759-118.7,38.759S0,84.33,0,62.983V38.759C0,17.411,53.167,0,118.7,0S237.4,17.411,237.4,38.759Zm0,54.5v54.5c0,21.348-53.167,38.759-118.7,38.759S0,169.115,0,147.767v-54.5C25.5,110.825,72.177,119,118.7,119S211.894,110.825,237.4,93.263Zm0,84.784v54.5c0,21.348-53.167,38.759-118.7,38.759S0,253.9,0,232.552v-54.5c25.5,17.563,72.177,25.738,118.7,25.738S211.894,195.61,237.4,178.047Z" transform="translate(645 236.769)" fill="#1991eb"/>
    </g>
  </g>
</svg>
